<?xml version="1.0" encoding="UTF-8" standalone="no"?>
<svg width="132px" height="60px" viewBox="0 0 132 60" version="1.1" xmlns="http://www.w3.org/2000/svg" xmlns:xlink="http://www.w3.org/1999/xlink">
    <!-- Generator: Sketch 39 (31667) - http://www.bohemiancoding.com/sketch -->
    <title>Group 7</title>
    <desc>Created with Sketch.</desc>
    <defs>
        <polyline id="path-1" points="36.427673 23.1666667 74.7147614 23.1666667 74.7147614 34.1893244 69.6098163 34.1893244 69.6098163 44.2934272 61.9523986 44.2934272 61.9523986 39.7006532 57.6982776 39.7006532 57.6982776 34.1893244 57.6982776 34.1893244 36.427673 34.1893244"></polyline>
        <mask id="mask-2" maskContentUnits="userSpaceOnUse" maskUnits="objectBoundingBox" x="0" y="0" width="38.2870884" height="21.1267606" fill="white">
            <use xlink:href="#path-1"></use>
        </mask>
        <path d="M46.9622642,19.2104974 L46.9622642,8.45395938 C46.9622642,3.78496654 50.7753551,0 55.4742197,0 L121.831079,0 C126.532102,0 130.343034,3.77599808 130.343034,8.45342133 L130.343034,51.5465787 C130.343034,56.2152744 126.529944,60 121.831079,60 L55.4742197,60 C50.7731965,60 46.9622642,56.224019 46.9622642,51.5491092 L46.9622642,39.1488776 L46.9622642,39.1488776" id="path-3"></path>
        <mask id="mask-4" maskContentUnits="userSpaceOnUse" maskUnits="objectBoundingBox" x="0" y="0" width="83.3807703" height="60" fill="white">
            <use xlink:href="#path-3"></use>
        </mask>
    </defs>
    <g id="Page-1" stroke="none" stroke-width="1" fill="none" fill-rule="evenodd">
        <g id="Tablet-9″-Landscape-Copy" transform="translate(-1485.000000, -623.000000)" stroke="#14B2B4">
            <g id="Group-7" transform="translate(1486.000000, 623.000000)">
                <path d="M52.9056604,5 L88.7361341,32.8873239" id="Line-Copy-8" stroke-width="2" stroke-linecap="square"></path>
                <path d="M124.811606,5 L88.9811321,32.8873239" id="Line-Copy-9" stroke-width="2" stroke-linecap="square"></path>
                <use id="Combined-Shape-Copy-2" mask="url(#mask-2)" stroke-width="4" xlink:href="#path-1"></use>
                <path d="M37,25.3148756 C35.4791381,16.6153944 27.8366667,10 18.6375953,10 C8.34433565,10 0,18.2827321 0,28.5 C0,38.7172679 8.34433565,47 18.6375953,47 C27.550444,47 35.0020508,40.789868 36.8403968,32.49097" id="Oval-12-Copy-5" stroke-width="2"></path>
                <ellipse id="Oval-12-Copy-6" stroke-width="2" cx="16.2389937" cy="29.6666667" rx="8" ry="8"></ellipse>
                <use id="Rectangle-13-Copy" mask="url(#mask-4)" stroke-width="4" xlink:href="#path-3"></use>
            </g>
        </g>
    </g>
</svg>