<?xml version="1.0" encoding="UTF-8" standalone="no"?>
<svg width="112px" height="92px" viewBox="0 0 112 92" version="1.1" xmlns="http://www.w3.org/2000/svg" xmlns:xlink="http://www.w3.org/1999/xlink">
    <!-- Generator: Sketch 39 (31667) - http://www.bohemiancoding.com/sketch -->
    <title>Group 3</title>
    <desc>Created with Sketch.</desc>
    <defs>
        <path d="M86.8571429,72.0488756 C86.8571429,75.089695 86.8571429,72.0488756 86.8571429,72.0488756 C86.8571429,75.407672 84.1291178,78.1305144 80.7661561,78.1305144 L37.5863217,78.1305144 L25.1689296,89.805047 C21.4916018,93.2623819 18.9115765,91.9954693 19.4058607,86.9795919 L20.2778835,78.1305144 L6.09777915,78.1305144 C2.73006872,78.1305144 0,75.4066623 0,72.0488756 L0,28.1312256 L0,28.1312256 C0,24.7724292 2.72258668,22.0495868 6.09685731,22.0495868 L19.1443452,22.0495868" id="path-1"></path>
        <mask id="mask-2" maskContentUnits="userSpaceOnUse" maskUnits="objectBoundingBox" x="0" y="0" width="86.8571429" height="69.703804" fill="white">
            <use xlink:href="#path-1"></use>
        </mask>
        <path d="M112,6.08163881 C112,2.72284244 109.269173,0 105.909646,0 L31.2332113,0 C27.8696016,0 25.1428571,2.72385208 25.1428571,6.08163881 L25.1428571,49.9992888 C25.1428571,53.3580852 27.8708822,56.0809276 31.2338439,56.0809276 L74.4136783,56.0809276 L86.8310704,67.7554603 C90.5083982,71.2127951 93.0884235,69.9458825 92.5941393,64.9300051 L91.7221165,56.0809276 L105.902221,56.0809276 C109.269931,56.0809276 112,53.3570756 112,49.9992888 L112,6.08163881" id="path-3"></path>
        <mask id="mask-4" maskContentUnits="userSpaceOnUse" maskUnits="objectBoundingBox" x="0" y="0" width="86.8571429" height="69.703804" fill="white">
            <use xlink:href="#path-3"></use>
        </mask>
    </defs>
    <g id="Page-1" stroke="none" stroke-width="1" fill="none" fill-rule="evenodd">
        <g id="Tablet-9″-Landscape-Copy" transform="translate(-1311.000000, -616.000000)" stroke="#14B2B4">
            <g id="Group-3" transform="translate(1311.000000, 616.000000)">
                <use id="Rectangle-Copy-4" mask="url(#mask-2)" stroke-width="4" xlink:href="#path-1"></use>
                <use id="Rectangle-Copy-10" mask="url(#mask-4)" stroke-width="4" xlink:href="#path-3"></use>
                <circle id="Oval-11-Copy-6" stroke-width="2" cx="48.6666667" cy="27.2892562" r="6"></circle>
                <path d="M68.4761905,33.2892562 C71.789899,33.2892562 74.4761905,30.6029647 74.4761905,27.2892562 C74.4761905,23.9755477 71.789899,21.2892562 68.4761905,21.2892562 C65.162482,21.2892562 62.4761905,23.9755477 62.4761905,27.2892562 C62.4761905,30.6029647 65.162482,33.2892562 68.4761905,33.2892562 Z" id="Oval-11-Copy-7" stroke-width="2"></path>
                <path d="M88.2857143,33.2892562 C91.5994228,33.2892562 94.2857143,30.6029647 94.2857143,27.2892562 C94.2857143,23.9755477 91.5994228,21.2892562 88.2857143,21.2892562 C84.9720058,21.2892562 82.2857143,23.9755477 82.2857143,27.2892562 C82.2857143,30.6029647 84.9720058,33.2892562 88.2857143,33.2892562 Z" id="Oval-11-Copy-8" stroke-width="2"></path>
            </g>
        </g>
    </g>
</svg>