<?xml version="1.0" encoding="UTF-8" standalone="no"?>
<svg width="96px" height="98px" viewBox="0 0 96 98" version="1.1" xmlns="http://www.w3.org/2000/svg" xmlns:xlink="http://www.w3.org/1999/xlink">
    <!-- Generator: Sketch 39 (31667) - http://www.bohemiancoding.com/sketch -->
    <title>Group 4</title>
    <desc>Created with Sketch.</desc>
    <defs>
        <path d="M79.568823,49.320406 L79.568823,89.6289663 C79.568823,93.8914776 76.2684271,97.3469258 72.201608,97.3469258 L24.3180347,97.3469258 C20.2492342,97.3469258 16.9508197,93.8966075 16.9508197,89.626907 L16.9508197,58.1744405 L16.9508197,52.3858968 M16.9508197,40.947878 L16.9508197,36.5918904 L16.9508197,7.72001877 C16.9508197,3.45637014 20.2512156,0 24.3180347,0 L72.201608,0 C76.2704085,0 79.568823,3.45059107 79.568823,7.71730962 C79.568823,7.71730962 79.568823,9.7205295 79.568823,10.7221394 C79.568823,12.6098017 79.568823,14.2818916 79.568823,16.1695538 L79.568823,15.804455" id="path-1"></path>
        <mask id="mask-2" maskContentUnits="userSpaceOnUse" maskUnits="objectBoundingBox" x="0" y="0" width="62.6180033" height="97.3469258" fill="white">
            <use xlink:href="#path-1"></use>
        </mask>
        <path d="M70.3976653,47.7346173 L70.3976648,78.5833283 L26.1967213,78.5833283 L26.1967213,61.7252179 M26.1967213,28.4100629 L26.1967213,9.1875 L70.3976648,9.1875 L70.3976653,15.6493973" id="path-3"></path>
        <mask id="mask-4" maskContentUnits="userSpaceOnUse" maskUnits="objectBoundingBox" x="0" y="0" width="44.200944" height="69.3958283" fill="white">
            <use xlink:href="#path-3"></use>
        </mask>
    </defs>
    <g id="Page-1" stroke="none" stroke-width="1" fill="none" fill-rule="evenodd">
        <g id="Tablet-9″-Landscape-Copy" transform="translate(-1149.000000, -616.000000)">
            <g id="Group-4" transform="translate(1150.000000, 616.000000)">
                <circle id="Oval-Copy-4" fill="#14B2B4" cx="48.5390163" cy="85.7674999" r="3.07999992"></circle>
                <use id="Combined-Shape-Copy-4" stroke="#14B2B4" mask="url(#mask-2)" stroke-width="4" stroke-linecap="round" stroke-linejoin="round" xlink:href="#path-1"></use>
                <use id="Rectangle-2-Copy-4" stroke="#14B2B4" mask="url(#mask-4)" stroke-width="4" stroke-linecap="round" xlink:href="#path-3"></use>
                <path d="M65.1868333,24 L93.1336572,24" id="Line-Copy" stroke="#14B2B4" stroke-width="2" stroke-linecap="square"></path>
                <path d="M65.4918033,32 L89.6989389,32" id="Line-Copy-2" stroke="#14B2B4" stroke-width="2" stroke-linecap="square"></path>
                <path d="M65.4918033,40 L84.1126768,40" id="Line-Copy-3" stroke="#14B2B4" stroke-width="2" stroke-linecap="square"></path>
                <path d="M0.385245902,43.8672566 L34.5,43.8672566" id="Line" stroke="#14B2B4" stroke-width="2" stroke-linecap="square"></path>
                <path d="M22.5,32.5 L35.5000001,44.5000003" id="Line" stroke="#14B2B4" stroke-width="2" stroke-linecap="square"></path>
                <path d="M22.5582878,44.5268944 L35.4999996,56.7881639" id="Line" stroke="#14B2B4" stroke-width="2" stroke-linecap="square" transform="translate(29.173042, 50.644082) scale(1, -1) translate(-29.173042, -50.644082) "></path>
            </g>
        </g>
    </g>
</svg>