<?xml version="1.0" encoding="UTF-8" standalone="no"?>
<svg width="86px" height="91px" viewBox="0 0 86 91" version="1.1" xmlns="http://www.w3.org/2000/svg" xmlns:xlink="http://www.w3.org/1999/xlink">
    <!-- Generator: Sketch 39 (31667) - http://www.bohemiancoding.com/sketch -->
    <title>Group 6</title>
    <desc>Created with Sketch.</desc>
    <defs>
        <path d="M7,23.3913043 C10.8659932,23.3913043 14,20.2572976 14,16.3913043 C14,12.5253111 10.8659932,9.39130435 7,9.39130435 C3.13400675,9.39130435 0,12.5253111 0,16.3913043 C0,20.2572976 3.13400675,23.3913043 7,23.3913043 Z" id="path-1"></path>
        <mask id="mask-2" maskContentUnits="userSpaceOnUse" maskUnits="objectBoundingBox" x="0" y="0" width="14" height="14" fill="white">
            <use xlink:href="#path-1"></use>
        </mask>
        <path d="M76.8691589,27.3043478 C80.7351521,27.3043478 83.8691589,24.1703411 83.8691589,20.3043478 C83.8691589,16.4383546 80.7351521,13.3043478 76.8691589,13.3043478 C73.0031656,13.3043478 69.8691589,16.4383546 69.8691589,20.3043478 C69.8691589,24.1703411 73.0031656,27.3043478 76.8691589,27.3043478 Z" id="path-3"></path>
        <mask id="mask-4" maskContentUnits="userSpaceOnUse" maskUnits="objectBoundingBox" x="0" y="0" width="14" height="14" fill="white">
            <use xlink:href="#path-3"></use>
        </mask>
        <circle id="path-5" cx="54.1028037" cy="7" r="7"></circle>
        <mask id="mask-6" maskContentUnits="userSpaceOnUse" maskUnits="objectBoundingBox" x="0" y="0" width="14" height="14" fill="white">
            <use xlink:href="#path-5"></use>
        </mask>
        <circle id="path-7" cx="29.7663551" cy="29.6956522" r="7"></circle>
        <mask id="mask-8" maskContentUnits="userSpaceOnUse" maskUnits="objectBoundingBox" x="0" y="0" width="14" height="14" fill="white">
            <use xlink:href="#path-7"></use>
        </mask>
    </defs>
    <g id="Page-1" stroke="none" stroke-width="1" fill="none" fill-rule="evenodd">
        <g id="Tablet-9″-Landscape-Copy" transform="translate(-1661.000000, -607.000000)" stroke="#14B2B4">
            <g id="Group-6" transform="translate(1662.000000, 607.000000)">
                <rect id="Rectangle-35" stroke-width="2" x="0" y="39.9130435" width="16.4859813" height="50.0869565" rx="1"></rect>
                <path d="M12.1682243,19.9565217 L24.5,27.0000002" id="Line" stroke-width="2" stroke-linecap="square"></path>
                <path d="M35.7196262,27 L49.8504673,12.9130435" id="Line" stroke-width="2" stroke-linecap="square"></path>
                <path d="M59.271028,10.5652174 L71.8317757,17.6086957" id="Line" stroke-width="2" stroke-linecap="square"></path>
                <use id="Oval-2" mask="url(#mask-2)" stroke-width="4" xlink:href="#path-1"></use>
                <use id="Oval-2" mask="url(#mask-4)" stroke-width="4" xlink:href="#path-3"></use>
                <use id="Oval-2" mask="url(#mask-6)" stroke-width="4" xlink:href="#path-5"></use>
                <use id="Oval-2" mask="url(#mask-8)" stroke-width="4" xlink:href="#path-7"></use>
                <rect id="Rectangle-35-Copy-2" stroke-width="2" x="44.7476636" y="29.7391304" width="16.4859813" height="60.2608696" rx="1"></rect>
                <rect id="Rectangle-35-Copy" stroke-width="2" x="22.7663551" y="54.7826087" width="16.4859813" height="35.2173913" rx="1"></rect>
                <rect id="Rectangle-35-Copy-3" stroke-width="2" x="67.5140187" y="43.0434783" width="16.4859813" height="46.9565217" rx="1"></rect>
            </g>
        </g>
    </g>
</svg>