<?xml version="1.0" encoding="utf-8"?>
<!-- Generator: Adobe Illustrator 16.0.0, SVG Export Plug-In . SVG Version: 6.00 Build 0)  -->
<!DOCTYPE svg PUBLIC "-//W3C//DTD SVG 1.1//EN" "http://www.w3.org/Graphics/SVG/1.1/DTD/svg11.dtd">
<svg version="1.1" id="Layer_2" xmlns="http://www.w3.org/2000/svg" xmlns:xlink="http://www.w3.org/1999/xlink" x="0px" y="0px"
	 width="335.279px" height="335.115px" viewBox="0 0 335.279 335.115" enable-background="new 0 0 335.279 335.115"
	 xml:space="preserve">
<path fill="#FFFFFF" d="M169.225,160.155c9.213,0,16.986,6.588,18.484,15.667l-7.078,1.166c-0.922-5.596-5.721-9.66-11.406-9.66
	c-5.691,0-10.491,4.064-11.416,9.66l-7.078-1.166C152.231,166.743,160.007,160.155,169.225,160.155z"/>
<polygon fill="#FFFFFF" points="146.467,125.792 146.467,125.797 146.468,125.792 "/>
<path fill="#FFFFFF" d="M205.987,173.394c-3.945-17.018-19.03-29.126-36.76-29.126c-17.736,0-32.826,12.108-36.773,29.126
	c-18.581,4.33-27.996,14.412-27.996,29.994c0,19.268,14.463,31.236,37.745,31.236h10.581v-7.172h-10.581
	c-7.172,0-30.572-1.734-30.572-24.064c0-12.668,7.811-20.127,24.581-23.467l2.435-0.484l0.404-2.449
	c2.443-14.802,15.135-25.547,30.176-25.547c15.035,0,27.721,10.745,30.163,25.547l0.405,2.451l2.435,0.482
	c16.771,3.338,24.581,10.795,24.581,23.467c0,22.33-23.411,24.064-30.585,24.064h-10.186v7.172h10.186
	c23.289,0,37.758-11.969,37.758-31.236C233.984,187.804,224.568,177.722,205.987,173.394z"/>
<path fill="#FFFFFF" d="M189.759,200.2l-3.718-3.68l-9.259-9.164l-1.934-1.916c-3.831-3.791-7.371-3.68-11.011-0.068l-2.615,2.596
	l-8.438,8.375l-3.889,3.857c-3.009,2.986-2.226,6.592,2.338,6.592h1.551h8.856v30.967c0,4.227,3.459,7.686,7.686,7.686
	c4.229,0,7.686-3.459,7.686-7.686v-30.967h9.029h0.647C192.031,206.792,192.355,202.771,189.759,200.2z"/>
<path fill="#FFFFFF" d="M146.516,125.145c0.961,0,1.88-0.342,2.594-0.964c0.354-0.312,8.888-7.739,20.124-8.328
	c0.46-0.024,0.921-0.037,1.389-0.037c6.856,0,13.204,2.647,18.865,7.868c1.47,1.342,4.02,1.322,5.454-0.052
	c0.711-0.686,1.097-1.586,1.084-2.535c-0.014-0.939-0.416-1.82-1.136-2.479c-7.15-6.588-15.227-9.928-24.009-9.928
	c-0.561,0-1.115,0.014-1.662,0.04c-3.087,0.146-6.228,0.701-9.329,1.65c-9.463,2.88-15.964,8.548-16.029,8.605
	c-0.749,0.648-1.179,1.523-1.215,2.47c-0.036,0.94,0.322,1.84,1.009,2.534c0.718,0.736,1.742,1.155,2.812,1.155v0.647h0
	L146.516,125.145z"/>
<path fill="#FFFFFF" d="M155.916,96.667c-12.991,3.96-21.898,11.427-22.872,12.265c-0.738,0.651-1.166,1.532-1.199,2.479
	c-0.034,0.935,0.32,1.831,0.999,2.523c1.385,1.401,3.957,1.5,5.455,0.204c0.553-0.48,13.754-11.773,30.793-12.675
	c0.711-0.037,1.424-0.057,2.148-0.057c10.46,0,20.157,4.041,28.824,12.01c0.728,0.672,1.682,1.042,2.688,1.042
	c1.093-0.014,2.058-0.401,2.762-1.089c0.712-0.681,1.097-1.573,1.089-2.514c-0.01-0.947-0.413-1.836-1.14-2.505
	c-10.135-9.333-21.577-14.066-34.008-14.066c-0.807,0-1.605,0.021-2.393,0.058C164.73,94.554,160.307,95.337,155.916,96.667z"/>
<path fill="#FFFFFF" d="M154.336,130.502c-0.738,0.65-1.165,1.529-1.199,2.471c-0.034,0.93,0.32,1.823,0.999,2.515
	c1.375,1.403,3.943,1.516,5.441,0.231c0.754-0.64,4.76-3.836,9.833-4.099c0.241-0.014,0.486-0.021,0.734-0.021
	c3.311,0,6.373,1.275,9.104,3.79c0.718,0.674,1.671,1.043,2.688,1.043c1.093-0.015,2.057-0.402,2.764-1.09
	c0.71-0.68,1.095-1.571,1.086-2.513c-0.009-0.947-0.414-1.837-1.138-2.507c-4.175-3.84-9.155-5.871-14.402-5.871
	c-0.289,0-0.58,0.006-0.871,0.018c-1.857,0.073-3.745,0.401-5.607,0.976C158.384,127.079,154.735,130.157,154.336,130.502z"/>
<path fill="#FFFFFF" d="M169.225,167.327c5.686,0,10.484,4.064,11.406,9.66l7.078-1.166c-1.498-9.078-9.271-15.667-18.484-15.667
	c-9.219,0-16.995,6.588-18.493,15.667l7.078,1.166C158.734,171.392,163.534,167.327,169.225,167.327z"/>
</svg>
