<?xml version="1.0" encoding="utf-8"?>
<!-- Generator: Adobe Illustrator 16.0.0, SVG Export Plug-In . SVG Version: 6.00 Build 0)  -->
<!DOCTYPE svg PUBLIC "-//W3C//DTD SVG 1.1//EN" "http://www.w3.org/Graphics/SVG/1.1/DTD/svg11.dtd">
<svg version="1.1" id="Layer_2" xmlns="http://www.w3.org/2000/svg" xmlns:xlink="http://www.w3.org/1999/xlink" x="0px" y="0px"
	 width="335.279px" height="335.115px" viewBox="0 0 335.279 335.115" enable-background="new 0 0 335.279 335.115"
	 xml:space="preserve">
<path fill="#FFFFFF" d="M223.285,158.806h-109.29c-5.229,0.018-9.46,4.241-9.471,9.47v76.779c0.01,5.229,4.241,9.459,9.471,9.471
	h43.421v1.582c0,0.822-0.323,2.123-0.716,2.892l-10.796,3.976c-0.966,0.448-2.707,0.817-3.86,0.817h-2.161
	c-1.153,0-2.104,0.672-2.104,1.492v0.067c0,0.82,0.949,1.492,2.104,1.492h57.508c1.159,0,2.103-0.672,2.103-1.492v-0.067
	c0-0.82-0.44-1.492-0.977-1.492c-0.545,0-1.922-0.103-3.068-0.229l-13.907-5.166c-0.978-0.438-1.777-1.467-1.777-2.289v-1.582
	h43.521c5.224-0.012,9.454-4.241,9.471-9.471v-76.779C232.739,163.046,228.509,158.823,223.285,158.806z M209.888,248.063
	c-0.625,0-1.132-0.765-1.132-1.699c0-0.938,0.507-1.703,1.132-1.703c0.619,0,1.132,0.766,1.132,1.703
	C211.02,247.3,210.509,248.063,209.888,248.063z M220.542,248.063h-4.491c-1.157,0-2.103-0.765-2.103-1.699
	c0-0.938,0.944-1.703,2.103-1.703h4.491c1.16,0,2.104,0.766,2.104,1.703C222.646,247.3,221.702,248.063,220.542,248.063z
	 M223.975,236.065c-0.013,1.686-1.428,3.098-3.107,3.102H116.411c-1.687-0.004-3.1-1.416-3.104-3.102v-65.711
	c0.006-1.686,1.419-3.099,3.104-3.104h104.457c1.681,0.005,3.096,1.418,3.107,3.104V236.065z"/>
<g>
	<path fill="#FFFFFF" d="M195.323,226.536L195.323,226.536h-4.499c0.144-0.314,0.229-0.656,0.229-1.021v-29.713
		c0-1.344-1.101-2.445-2.441-2.445h-3.652c-1.345,0-2.442,1.103-2.442,2.445v29.713c0,0.365,0.087,0.707,0.229,1.021h-7.398
		c0.146-0.314,0.232-0.656,0.232-1.021V185.13c0-1.346-1.102-2.443-2.447-2.443h-3.647c-1.345,0-2.444,1.099-2.444,2.443v40.385
		c0,0.365,0.085,0.707,0.231,1.021h-7.401c0.146-0.314,0.232-0.656,0.232-1.021v-18.684c0-1.344-1.102-2.445-2.444-2.445h-3.649
		c-1.345,0-2.445,1.102-2.445,2.445v18.684c0,0.365,0.086,0.707,0.232,1.021h-8.416v-24.082h1.691c0.287,0,0.521-0.531,0.521-1.186
		c0-0.652-0.232-1.187-0.521-1.187h-1.691v-20.601c0-0.789-0.637-1.424-1.422-1.424c-0.788,0-1.424,0.635-1.424,1.424v48.478
		c0,0.375,0.151,0.74,0.416,1.008c0.267,0.263,0.633,0.416,1.008,0.416h53.365c0.786,0,1.422-0.637,1.422-1.424
		S196.109,226.536,195.323,226.536z"/>
</g>
</svg>
