<?xml version="1.0" encoding="utf-8"?>
<!-- Generator: Adobe Illustrator 16.0.0, SVG Export Plug-In . SVG Version: 6.00 Build 0)  -->
<!DOCTYPE svg PUBLIC "-//W3C//DTD SVG 1.1//EN" "http://www.w3.org/Graphics/SVG/1.1/DTD/svg11.dtd">
<svg version="1.1" id="Layer_2" xmlns="http://www.w3.org/2000/svg" xmlns:xlink="http://www.w3.org/1999/xlink" x="0px" y="0px"
	 width="335.279px" height="335.115px" viewBox="0 0 335.279 335.115" enable-background="new 0 0 335.279 335.115"
	 xml:space="preserve">
<g>
	<g>
		<path fill="#FFFFFF" d="M132.906,167.219c-3.537,1.589-7.385,2.556-11.501,2.556c-6.622,0-12.702-2.301-17.576-6.11
			c-13.902,6.662-23.535,20.914-23.535,37.491c0,7.535,8.858,12.575,20.746,15.165C104.24,196.128,115.728,178.392,132.906,167.219z
			 M121.405,159.466c3.9,0,7.508-1.151,10.628-3.036c-1.832-4.798-2.88-9.988-2.88-15.44c0-7.016,1.708-13.63,4.668-19.488
			c-3.472-2.61-7.747-4.22-12.417-4.22c-11.528,0-20.889,9.434-20.889,21.098C100.516,150.022,109.876,159.466,121.405,159.466z
			 M233.569,163.665c-4.876,3.809-10.958,6.11-17.573,6.11c-0.693,0-1.349-0.128-2.027-0.173
			c14.837,10.927,24.8,27.032,28.073,45.22c8.926-2.842,15.063-7.398,15.063-13.666
			C257.105,184.578,247.473,170.326,233.569,163.665z M210.464,158.614c1.769,0.494,3.597,0.852,5.532,0.852
			c11.524,0,20.882-9.444,20.882-21.086c0-11.664-9.357-21.098-20.882-21.098c-2.8,0-5.455,0.574-7.891,1.588
			c3.871,6.476,6.144,14.021,6.144,22.12C214.249,147.273,212.875,153.232,210.464,158.614z M198.223,174.536
			c-7.287,5.879-16.498,9.434-26.533,9.434c-10.028,0-19.235-3.555-26.511-9.434c-19.318,9.824-32.6,29.98-32.6,53.309
			c0,32.994,118.241,32.994,118.241,0C230.821,204.517,217.536,184.36,198.223,174.536z M171.69,171.304
			c16.592,0,30.028-13.576,30.028-30.314c0-16.749-13.437-30.345-30.028-30.345c-16.576,0-30.011,13.597-30.011,30.345
			C141.679,157.728,155.114,171.304,171.69,171.304z"/>
	</g>
</g>
</svg>
