<?xml version="1.0" encoding="utf-8"?>
<!-- Generator: Adobe Illustrator 16.0.0, SVG Export Plug-In . SVG Version: 6.00 Build 0)  -->
<!DOCTYPE svg PUBLIC "-//W3C//DTD SVG 1.1//EN" "http://www.w3.org/Graphics/SVG/1.1/DTD/svg11.dtd">
<svg version="1.1" id="Layer_2" xmlns="http://www.w3.org/2000/svg" xmlns:xlink="http://www.w3.org/1999/xlink" x="0px" y="0px"
	 width="335.279px" height="335.115px" viewBox="0 0 335.279 335.115" enable-background="new 0 0 335.279 335.115"
	 xml:space="preserve">
<path fill="#FFFFFF" d="M238.237,116.77H90.983c-2.146,0-3.881,1.55-3.881,3.442v34.294c0,1.899,1.735,3.448,3.881,3.448h147.254
	c2.126,0,3.864-1.549,3.864-3.448v-34.294C242.102,118.319,240.363,116.77,238.237,116.77 M235.438,151.554H93.765v-26.795h141.674
	L235.438,151.554L235.438,151.554z"/>
<path fill="#FFFFFF" d="M235.942,284.915c-1.152-3.18-2.461-6.381-2.803-7.686c-0.746-2.901-1.018-8.482-1.009-13.235
	c0.011-4.265-0.745-8.748-1.911-13.013c-0.52-1.934-1.679-6.912-2.121-9.312h10.141c2.126,0,3.862-1.556,3.862-3.438v-73.833
	c0-1.903-1.736-3.447-3.862-3.447H90.982c-2.145,0-3.878,1.544-3.878,3.447v73.833c0,1.884,1.733,3.438,3.878,3.438h2.415
	c-0.112,1.574-0.154,2.979-0.129,3.937c0.067,3.088,0.204,9.373,0.309,13.055c0.143,4.529,2.048,9.027,2.186,14.631
	c0.035,1.648-0.271,4.025-0.8,6.87c-0.399-0.278-0.792-0.552-1.189-0.821c0,1.167,0,2.604,0,3.932
	c0.166,0.096,0.329,0.226,0.489,0.322c4.845,3.153,9.906,5.988,15.146,8.524c0.813-0.819,1.625-1.638,2.437-2.429
	c-0.23-0.127-0.468-0.228-0.703-0.325c2.773-9.554,5.419-17.792,6.925-20.544c1.885-2.979,4.262-11.485,4.722-12.854
	c1.461-4.349,1.665-8.428,1.738-10.418c0.028-1.084,0.229-3.448,0.152-5.437c0-0.012,0-0.022,0-0.041
	c-0.004-0.217-0.019-0.438-0.03-0.627c-0.007-0.07-0.013-0.139-0.021-0.176c-0.017-0.166-0.026-0.31-0.05-0.459
	c-0.011-0.074-0.024-0.139-0.037-0.221c-0.015-0.111-0.036-0.232-0.064-0.349c-0.017-0.068-0.026-0.146-0.047-0.201
	c-0.032-0.103-0.055-0.203-0.093-0.295c-0.021-0.052-0.037-0.109-0.06-0.161c-0.04-0.102-0.084-0.161-0.128-0.243
	c-0.021-0.024-0.04-0.073-0.068-0.108c-0.076-0.08-0.155-0.17-0.235-0.211c0.348-0.111,0.746-0.144,1.205-0.095
	c0.933,0.146,1.088,2.46,1.052,4.743h71.119c-0.03-0.109-0.074-0.247-0.109-0.337c-0.898-2.56-1.921-7.21-2.916-10.007
	c-0.737-2.088-1.595-6.104,0.801-7.275c-0.366,1.704,0.188,3.938,0.682,5.323c0.995,2.794,2.016,7.446,2.907,10.006
	c0.097,0.253,0.195,0.588,0.304,0.972c0,0.01,0,0.016,0.005,0.029c0.13,0.395,0.231,0.813,0.354,1.287
	c0.852,3.213,1.928,8.079,2.455,9.661c0.615,1.896,1.025,3.562,1.235,4.894c-0.649-1.087-1.294-2.143-1.873-2.855
	c-0.38-0.498-0.82-1.079-1.303-1.725c-2.544-3.406-6.241-8.156-9.449-5.461c-0.27,0.231-0.325,0.688-0.233,1.293
	c0.438,3.125,4.973,10.416,6.232,12.228c1.871,2.667,5.146,7.001,7.98,12.155c0.98,1.801,3.947,5.742,6.099,7.645
	c1.211,1.738,2.194,3.088,2.501,3.893c0.531,1.373,3.015,5.553,5.161,9.899c1.358,0.351,2.478,0.92,2.41,2.692
	c6.001-2.403,11.801-5.231,17.359-8.418c0-1.266,0-2.52,0-3.769C237.199,284.168,236.575,284.562,235.942,284.915z M106.883,168.453
	h7.644v7.388h-7.644V168.453z M106.883,177.96h7.644v7.596h-7.644V177.96z M106.883,187.669h7.644v7.591h-7.644V187.669z
	 M97.484,168.453h7.273v7.388h-7.273V168.453z M97.484,177.96h7.273v7.596h-7.273V177.96z M97.484,187.669h7.273v7.591h-7.273
	V187.669z M97.484,197.456h7.273v7.391h-7.273V197.456z M98.194,237.092c-0.005,0.093-0.006,0.241-0.011,0.392
	c-0.002,0.055-0.002,0.113-0.005,0.16c-0.003,0.137-0.007,0.287-0.009,0.438c0,0.048,0,0.103-0.002,0.159
	c-0.002,0.201-0.005,0.427-0.005,0.654c-0.002,0.109-0.002,0.233-0.002,0.35c0,0.127,0,0.27,0,0.404c0,0.175,0,0.34,0,0.511
	c0,0.04,0,0.063,0,0.104c0,0.422,0.002,0.875,0.007,1.332c0,0.023,0,0.047,0,0.074c0.004,0.813,0.012,1.657,0.021,2.473
	c-0.146,0.193-0.212,0.312-0.212,0.312s-0.056-1.29-0.094-2.786c-0.002-0.354-0.011-0.706-0.019-1.057
	c0-0.01-0.001-0.019-0.001-0.025c-0.007-0.354-0.011-0.686-0.014-1.01c0-0.018,0-0.041,0-0.067
	c-0.002-0.323-0.002-0.629,0.002-0.899c0-0.016,0.002-0.026,0.002-0.039c0.004-0.278,0.014-0.527,0.024-0.742
	c0.052-1.002,0.021-1.912,0.234-4.281c0.197-2.339,0.001-3.059-0.529-3.374c0.243-0.18,0.506-0.276,0.79-0.221
	c0.45,0.108,0.788,0.241,0.986,0.639C98.818,232.947,98.283,235.531,98.194,237.092z M106.622,225.678
	c-0.71,1.968-1.453,4.15-1.851,5.788c0.135-1.271,0.244-2.529,0.27-3.652c0.065-2.414,1.02-6.446-0.776-7.241
	c0.322-0.136,0.667-0.21,1.097-0.138C107.061,220.744,106.855,223.333,106.622,225.678z M106.883,204.847v-7.392h7.644v7.392
	H106.883z M114.01,224.178c-0.073,0.515-0.161,1.056-0.269,1.613c-1.007,2.433-2.604,6.106-2.943,8.117
	c-0.135,0.796-0.544,3.526-0.903,5.997c0.196-2.025,0.445-4.035,0.617-5.318c0.39-2.952,1.661-7.207,2.099-10.409
	c0.347-2.519,1.776-6.565-0.257-7.255c0.389-0.146,0.822-0.176,1.334-0.033C115.842,217.489,114.363,221.619,114.01,224.178z
	 M119.945,226.573c-0.41,2.922-1.845,6.74-2.201,9.432c-0.119,0.914-0.35,3.211-0.503,5.665h2.647
	c-0.242,1.499-0.343,2.961-0.582,3.733c-0.616,2.014-1.298,4.219-1.821,5.703c-0.287,0.789-0.524,1.39-0.678,1.629
	c-0.043,0.061-0.151,0.188-0.323,0.365c-0.51-1.861-0.761-4.298-0.796-6.813c-0.017-1.387,0.056-3.035,0.147-4.618
	c0.002-0.012,0.002-0.022,0.002-0.035c0.025-0.331,0.051-0.653,0.065-0.971c0.014-0.213,0.032-0.438,0.053-0.642
	c0.016-0.198,0.025-0.396,0.042-0.57c0.027-0.299,0.048-0.574,0.066-0.84c0.022-0.211,0.043-0.402,0.062-0.61
	c0.008-0.12,0.023-0.261,0.038-0.373c0.024-0.296,0.049-0.558,0.079-0.78c0.009-0.089,0.019-0.15,0.027-0.217
	c0.021-0.234,0.048-0.47,0.07-0.627c0.362-2.689,1.801-6.51,2.208-9.432c0.313-2.33,1.93-6.098-0.303-6.862
	c0.378-0.151,0.821-0.192,1.36-0.021C121.918,220.39,120.277,224.224,119.945,226.573z M124.29,204.847h-7.641v-7.392h7.641V204.847
	z M124.29,195.26h-7.641v-7.591h7.641V195.26z M124.29,185.556h-7.641v-7.596h7.641V185.556z M124.29,175.841h-7.641v-7.388h7.641
	V175.841z M175.246,168.453h7.646v7.388h-7.646V168.453z M175.246,177.96h7.646v7.596h-7.646V177.96z M175.246,187.669h7.646v7.591
	h-7.646V187.669z M165.479,168.453h7.644v7.388h-7.644V168.453z M165.479,177.96h7.644v7.596h-7.644V177.96z M165.479,187.669h7.644
	v7.591h-7.644V187.669z M155.709,168.453h7.646v7.388h-7.646V168.453z M155.709,177.96h7.646v7.596h-7.646V177.96z M155.709,187.669
	h7.646v7.591h-7.646V187.669z M145.944,168.453h7.646v7.388h-7.646V168.453z M145.944,177.96h7.646v7.596h-7.646V177.96z
	 M145.944,187.669h7.646v7.591h-7.646V187.669z M136.183,168.453h7.642v7.388h-7.642V168.453z M136.182,177.96h7.644v7.596h-7.644
	V177.96z M134.062,204.847h-7.648v-7.392h7.648V204.847z M134.062,195.26h-7.648v-7.591h7.648V195.26z M134.062,185.556h-7.648
	v-7.596h7.648V185.556z M134.062,175.841h-7.648v-7.388h7.648V175.841z M136.182,187.669h7.644v7.591h-7.644V187.669z
	 M186.62,232.942h-44.029v-24.469h44.029V232.942z M192.665,204.847h-56.481v-7.392h56.481V204.847z M192.665,195.26h-7.646v-7.591
	h7.646V195.26z M192.665,185.556h-7.646v-7.596h7.646V185.556z M192.665,175.841h-7.646v-7.388h7.646V175.841z M224.076,168.453
	h7.649v7.388h-7.649V168.453z M224.076,177.96h7.649v7.596h-7.649V177.96z M224.076,187.669h7.649v7.591h-7.649V187.669z
	 M214.319,177.96h7.635v7.596h-7.635V177.96z M214.319,187.669h7.635v7.591h-7.635V187.669z M204.548,168.453h7.648v7.388h-7.648
	V168.453z M204.548,177.96h7.648v7.596h-7.648V177.96z M204.548,187.669h7.648v7.591h-7.648V187.669z M194.787,168.453h7.635v7.388
	h-7.635V168.453z M194.787,177.96h7.635v7.596h-7.635V177.96z M194.787,187.669h7.635v7.591h-7.635V187.669z M194.787,204.847
	v-7.392h7.635v7.392H194.787z M207.293,243.993c-0.189,0.041-0.632-0.979-1.141-2.323c-0.524-1.417-1.128-3.163-1.57-4.453
	c-0.043-0.099-0.083-0.196-0.106-0.302c-0.032-0.066-0.063-0.16-0.086-0.225c-0.054-0.17-0.113-0.325-0.172-0.469
	c-0.015-0.061-0.029-0.103-0.034-0.15c-0.611-2.299-1.938-7.574-2.422-9.867c-0.908-4.354-1.947-6.876,0.478-7.895
	c-0.143,1.375,0.442,3.309,1.004,5.938c0.482,2.31,1.797,7.584,2.426,9.87c0.033,0.156,0.075,0.337,0.132,0.544
	c0.015,0.062,0.031,0.114,0.046,0.168c0.032,0.18,0.08,0.362,0.133,0.544c0.01,0.078,0.021,0.143,0.022,0.221
	c0.145,0.539,0.271,1.174,0.407,1.854c0.004,0.009,0.004,0.009,0.01,0.018c0.063,0.342,0.132,0.703,0.192,1.059
	c0.004,0.004,0.004,0.008,0.004,0.01c0.209,1.076,0.42,2.191,0.552,3.131C207.363,242.981,207.449,243.955,207.293,243.993z
	 M204.548,204.847v-7.392h7.648v7.392H204.548z M215.204,241.272c-0.434,0.047-2.258-5.332-2.878-7.973
	c-0.049-0.185-0.119-0.394-0.167-0.615c-0.501-2.553-1.162-5.8-1.617-7.461c-0.406-1.541-1.213-4.162,1.001-4.931
	c-0.084,0.994,0.267,2.149,0.494,2.967c0.602,2.267,1.605,7.466,2.055,9.86C214.594,235.788,215.629,241.247,215.204,241.272z
	 M214.319,204.847v-7.392h7.635v7.392H214.319z M222.646,241.351c-0.603-0.093-1.982-5.203-2.38-7.293
	c-0.03-0.123-0.062-0.305-0.102-0.445c-0.221-1.274-0.44-2.68-0.644-4.116c-0.372-2.866,0.409-3.418,1.406-3.659
	c-0.039,0.463-0.021,1.016,0.071,1.712c0.322,2.367,0.741,4.722,1.044,6.421C222.363,235.741,223.044,241.419,222.646,241.351z
	 M224.076,197.456h7.649v7.391h-7.649V197.456z"/>
</svg>
