<?xml version="1.0" encoding="utf-8"?>
<!-- Generator: Adobe Illustrator 16.0.0, SVG Export Plug-In . SVG Version: 6.00 Build 0)  -->
<!DOCTYPE svg PUBLIC "-//W3C//DTD SVG 1.1//EN" "http://www.w3.org/Graphics/SVG/1.1/DTD/svg11.dtd">
<svg version="1.1" id="Layer_2" xmlns="http://www.w3.org/2000/svg" xmlns:xlink="http://www.w3.org/1999/xlink" x="0px" y="0px"
	 width="335.279px" height="335.115px" viewBox="0 0 335.279 335.115" enable-background="new 0 0 335.279 335.115"
	 xml:space="preserve">
<path fill="#FFFFFF" d="M218.204,295.743l-0.488,0.285C217.716,296.028,218.52,296.642,218.204,295.743 M247.582,275.354
	c-0.764-1.179-0.088-1.196-0.887-2.539c-0.805-1.321-4.379-7.883-4.813-9.025c-0.441-1.121-2.143-6.362-2.209-6.618
	c-0.078-0.256-0.467-1.481-0.21-3.112c0.28-1.627,0.529-6.312,0.316-8.882c-0.219-2.571-0.585-5.888-0.669-7.354
	c-0.057-1.48,0.009-5.102-0.015-6.374c-0.063-1.974,0.083-4.517-0.145-6.536c-0.232-2.039-0.735-3.658-1.778-5.422
	c-0.685-1.174-1.524-2.831-2.451-4.473c-0.925-1.639-2.325-4.211-4.255-4.975c-1.921-0.768-3.525-0.063-4.508,0.521
	c-0.625,0.353-0.805,0.705-0.871,0.85c-0.056,0-0.064-0.014-0.113,0c-0.151-0.343-0.812-2.49-1.102-4.357
	c-0.275-1.896-1.541-3.174-2.483-3.904c-0.95-0.771-2.653-1.75-4.685-1.463c-2.002,0.317-2.947,1.619-3.308,2.012
	c-0.348,0.4-0.584,1.521-0.679,1.355c-0.053-0.166-0.531-2.802-0.825-3.773c-0.301-1-0.704-1.588-2.034-3.21
	c-1.336-1.622-3.472-1.63-5.15-1.47c-1.704,0.15-3.044,1.441-3.905,3.291c-0.861,1.821-0.665,4.97-0.452,6.436
	c0.217,1.445,0.424,4.018,0.411,4.268c-0.001,0.252-1.023-1.272-1.724-2.565c-0.72-1.312-2.601-6.216-3.297-8.248
	c-0.681-2-2.068-5.188-2.6-7.125c-0.542-1.914-1.015-2.554-1.994-4.287c-0.95-1.74-2.579-4.899-2.997-6.446
	c-0.575-2.222-2.906-6.136-3.919-8.648c-1.054-2.516-1.899-2.84-2.226-3.123c-0.294-0.287-1.546-0.883-3.605-0.266
	c-2.023,0.627-2.443,2.235-2.604,2.969c-0.124,0.75-0.313,2.729,0.464,5.19c0.636,2.074,1.521,3.966,2.078,6.123
	c0.536,2.154,1.998,4.363,2.382,7.181c0.408,2.819,2.284,7.629,2.931,9.114c0.688,1.454,3.371,8.833,3.863,10.935
	c0.471,2.1,0.537,4.586,0.878,6.227c0.294,1.498,0.879,5.91,0.97,6.703c-0.015-0.002-0.038,0-0.06,0
	c-0.064-0.163-0.199-0.443-0.383-0.95c-0.279-0.739-2.063-3.258-3.634-4.612c-1.568-1.39-3.497-2.703-5.229-3.44
	c-1.737-0.752-3.914-0.688-5.169-0.177c-2.646,1.14-2.495,2.646-2.168,3.396c0.01,0.033,0.022,0.056,0.024,0.086
	c0.012,0.04,0.043,0.116,0.078,0.146c0.005,0.009,0.029,0.031,0.032,0.049c0.05,0.09,0.124,0.186,0.159,0.26
	c0.148,0.215,4.651,4.145,4.849,4.212c0.008,0.015,0.028,0.03,0.03,0.042c0.045,0.44,0.712,1.532,0.827,2.612
	c0.09,1.086,0.702,2.623,0.965,3.373c0.189,0.456,0.44,0.896,0.709,1.34c0.004,0.024,0,0.045,0.007,0.062
	c0.021,0.092,0.08,0.139,0.162,0.188c0.151,0.233,0.29,0.467,0.469,0.718c0.529,0.797,1.953,3.983,3.086,7.234
	c1.166,3.249,2.367,6.316,3.747,7.724c1.407,1.392,6.683,10.868,8.146,13.039c1.466,2.161,5.769,9.088,7.382,11.04
	c1.597,1.938,2.646,3.086,4.283,6.221c1.645,3.119,5.739,11.268,8.809,15.93c1.045,1.578,1.516,2.455,1.713,2.929l29.378-18.099
	C247.582,277.646,248.362,276.541,247.582,275.354"/>
<path fill="#FFFFFF" d="M186.889,114.933h-48.011c-6.022,0-10.949,4.955-10.949,11.067v117.76c0,6.115,4.927,11.036,10.949,11.036
	h48.011c6.021,0,10.942-4.921,10.942-11.036V126C197.831,119.888,192.91,114.933,186.889,114.933 M151.617,124.916
	c0-0.331,0.255-0.603,0.584-0.603h21.238c0.308,0,0.58,0.272,0.58,0.603v0.356c0,0.332-0.272,0.607-0.58,0.607h-21.238
	c-0.329,0-0.584-0.275-0.584-0.607V124.916z M132.593,135.971h60.44v97.24h-60.44V135.971z M162.741,251.129
	c-3.486,0-6.306-2.888-6.306-6.454c0-3.557,2.819-6.449,6.306-6.449c3.472,0,6.295,2.894,6.295,6.449
	C169.036,248.242,166.213,251.129,162.741,251.129"/>
</svg>
