<?xml version="1.0" encoding="utf-8"?>
<!-- Generator: Adobe Illustrator 16.0.0, SVG Export Plug-In . SVG Version: 6.00 Build 0)  -->
<!DOCTYPE svg PUBLIC "-//W3C//DTD SVG 1.1//EN" "http://www.w3.org/Graphics/SVG/1.1/DTD/svg11.dtd">
<svg version="1.1" id="Layer_2" xmlns="http://www.w3.org/2000/svg" xmlns:xlink="http://www.w3.org/1999/xlink" x="0px" y="0px"
	 width="335.279px" height="335.115px" viewBox="0 0 335.279 335.115" enable-background="new 0 0 335.279 335.115"
	 xml:space="preserve">
<path fill="#FFFFFF" d="M221.919,301.897l-0.454,0.285C221.465,302.183,222.231,302.771,221.919,301.897 M249.727,282.642
	c-0.744-1.132-0.102-1.151-0.86-2.406c-0.761-1.248-4.135-7.467-4.554-8.532c-0.402-1.066-2.019-6.024-2.07-6.259
	c-0.074-0.246-0.438-1.389-0.205-2.92c0.259-1.531,0.493-5.957,0.286-8.391c-0.195-2.438-0.53-5.585-0.614-6.978
	c-0.053-1.392,0.01-4.833-0.022-6.019c-0.041-1.88,0.08-4.289-0.143-6.175c-0.198-1.952-0.683-3.472-1.677-5.14
	c-0.639-1.094-1.421-2.667-2.312-4.247c-0.891-1.544-2.206-3.962-4.021-4.662c-1.797-0.743-3.315-0.085-4.265,0.479
	c-0.577,0.334-0.732,0.651-0.827,0.799c-0.027-0.004-0.053-0.008-0.112,0c-0.106-0.319-0.762-2.336-1.009-4.117
	c-0.283-1.813-1.477-3.012-2.382-3.691c-0.896-0.727-2.48-1.658-4.413-1.367c-1.886,0.288-2.79,1.527-3.115,1.877
	c-0.358,0.394-0.571,1.463-0.64,1.307c-0.073-0.157-0.524-2.672-0.813-3.598c-0.275-0.93-0.646-1.459-1.89-3.035
	c-1.269-1.532-3.304-1.536-4.876-1.389c-1.615,0.149-2.883,1.37-3.696,3.133c-0.817,1.717-0.652,4.709-0.419,6.09
	c0.192,1.379,0.383,3.815,0.369,4.022c-0.01,0.253-0.948-1.212-1.598-2.433c-0.701-1.235-2.452-5.85-3.135-7.785
	c-0.644-1.88-1.973-4.908-2.464-6.729c-0.492-1.82-0.939-2.426-1.856-4.078c-0.919-1.65-2.452-4.612-2.858-6.092
	c-0.562-2.111-2.748-5.795-3.701-8.147c-0.994-2.39-1.799-2.701-2.093-2.979c-0.294-0.277-1.494-0.813-3.396-0.238
	c-1.942,0.572-2.35,2.093-2.454,2.809c-0.143,0.714-0.298,2.58,0.391,4.896c0.609,1.972,1.463,3.769,1.967,5.789
	c0.548,2.021,1.92,4.119,2.273,6.81c0.366,2.64,2.146,7.196,2.768,8.582s3.174,8.371,3.637,10.354
	c0.462,1.983,0.505,4.338,0.858,5.904c0.26,1.402,0.802,5.548,0.906,6.303c-0.047-0.002-0.062,0-0.072,0
	c-0.049-0.148-0.182-0.425-0.349-0.896c-0.278-0.688-1.956-3.079-3.453-4.349c-1.451-1.313-3.27-2.563-4.924-3.278
	c-1.655-0.669-3.685-0.64-4.877-0.154c-2.535,1.065-2.384,2.519-2.085,3.217c0.005,0.054,0.012,0.067,0.021,0.081
	c0.062,0.038,0.076,0.124,0.092,0.156c0.003,0.005,0.016,0.018,0.021,0.023c0.085,0.113,0.13,0.172,0.159,0.26
	c0.143,0.189,4.4,3.888,4.57,3.974c0.005,0.009,0.016,0.021,0.017,0.027c0.091,0.433,0.717,1.487,0.791,2.473
	c0.099,1.03,0.685,2.478,0.961,3.187c0.156,0.433,0.37,0.865,0.65,1.295c0.001,0.016,0,0.025,0.002,0.035
	c0.013,0.082,0.098,0.15,0.148,0.177c0.148,0.226,0.29,0.446,0.446,0.671c0.493,0.765,1.848,3.764,2.922,6.842
	c1.072,3.109,2.245,6.006,3.53,7.305c1.328,1.334,6.328,10.293,7.714,12.318c1.385,2.063,5.454,8.623,6.981,10.461
	c1.525,1.832,2.492,2.914,4.034,5.857c1.553,2.973,5.431,10.654,8.342,15.063c0.979,1.502,1.424,2.316,1.581,2.762l27.809-17.098
	C249.727,284.801,250.45,283.747,249.727,282.642"/>
<path fill="#FFFFFF" d="M121.31,282.56c-0.12-0.356-0.798-0.621-1.748-0.799c-0.343-2.99-0.681-5.809-0.775-6.408
	c-0.208-1.25-0.059-4.271,0.02-5.906c0.081-1.604,0.172-1.717,0.368-2.645c0.208-0.928,0.344-1.552,0.778-2.295
	c0.44-0.747,1.287-2.283,1.727-4.166c0.44-1.88-0.185-4.652-0.325-5.539c-0.138-0.874-0.545-1.935-0.545-1.935
	s0.169-0.575,0.278-1.101c0.121-0.49,0.001-1.42-0.013-1.572c-0.01-0.15,0.016-0.568,0.276-1.592
	c0.255-1.015,0.529-3.715,0.449-6.435c-0.077-2.704-0.919-5.832-1.043-6.541c-0.126-0.67-1.018-4.433-2.111-7.481
	c-1.083-3.053-1.084-4.488-1.187-6.074c-0.109-1.543,0.462-2.998,0.705-5.278c0.24-2.284,0.036-2.817-0.471-4.683
	c-0.511-1.863-1.911-4.875-1.911-4.875c-0.881-1.385-2.009-2.316-3.698-2.562c-1.689-0.2-3.172,0.242-4,1.208
	c-0.794,0.934-0.519,3.623-0.519,3.623s-4.545,5.355-5.921,6.924c-1.376,1.615-4.03,5.487-4.606,6.559
	c-0.583,1.067-0.62,2.58-0.594,3.873c0.021,1.115,0.415,1.397,0.24,4.418c-0.225,3.742,0.505,5.74,0.833,11.723
	c0.326,5.958,1.193,14.501,1.251,17.284c0.181,7.804-0.617,14.657-1.326,19.491c-0.104,0.714-0.243,1.711-0.405,2.93
	c-1.341,0.258-2.398,0.584-2.699,1.052c-0.088,0.146-0.186,0.611-0.292,1.324c9.044,6.901,19.07,12.578,29.802,16.829
	C122.657,292.296,121.471,283.053,121.31,282.56"/>
<path fill="#FFFFFF" d="M227.121,253.231l-12.06-138.167c-0.479-5.488-3.738-8.252-9.213-7.779l-93.562,8.159
	c-5.471,0.481-8.227,3.775-7.75,9.262l12.05,138.155c0.485,5.486,3.767,8.25,9.231,7.773l93.573-8.154
	C224.845,261.995,227.615,258.719,227.121,253.231 M172.495,264.233c-2.162,0.185-4.099-1.411-4.275-3.616
	c-0.2-2.175,1.402-4.103,3.566-4.293c2.208-0.179,4.101,1.434,4.321,3.623C176.289,262.113,174.659,264.053,172.495,264.233
	 M214.185,250.349l-85.063,7.43c-0.312,0.023-0.588-0.23-0.616-0.54l-11.299-129.484c-0.023-0.312,0.207-0.591,0.518-0.616
	l85.073-7.426c0.31-0.022,0.595,0.21,0.613,0.521l11.289,129.502C214.722,250.044,214.511,250.33,214.185,250.349"/>
</svg>
